<svg xmlns="http://www.w3.org/2000/svg" width="6054" height="4632" viewBox="0 0 6054 4632" font-family="Segoe UI,Arial,Helvetica,sans-serif">
<rect width="6054" height="4632" fill="#ffffff"/>
<line x1="334" y1="471" x2="607" y2="565" stroke="#999" stroke-width="1.6"/>
<line x1="516" y1="471" x2="607" y2="565" stroke="#999" stroke-width="1.6"/>
<line x1="698" y1="471" x2="607" y2="565" stroke="#999" stroke-width="1.6"/>
<line x1="880" y1="471" x2="607" y2="565" stroke="#999" stroke-width="1.6"/>
<line x1="1584" y1="471" x2="1857" y2="565" stroke="#999" stroke-width="1.6"/>
<line x1="1766" y1="471" x2="1857" y2="565" stroke="#999" stroke-width="1.6"/>
<line x1="1948" y1="471" x2="1857" y2="565" stroke="#999" stroke-width="1.6"/>
<line x1="2130" y1="471" x2="1857" y2="565" stroke="#999" stroke-width="1.6"/>
<line x1="1766" y1="405" x2="1857" y2="565" stroke="#999" stroke-width="1.6"/>
<line x1="1948" y1="405" x2="1857" y2="565" stroke="#999" stroke-width="1.6"/>
<line x1="2834" y1="471" x2="3107" y2="565" stroke="#999" stroke-width="1.6"/>
<line x1="3016" y1="471" x2="3107" y2="565" stroke="#999" stroke-width="1.6"/>
<line x1="3198" y1="471" x2="3107" y2="565" stroke="#999" stroke-width="1.6"/>
<line x1="3380" y1="471" x2="3107" y2="565" stroke="#999" stroke-width="1.6"/>
<line x1="2834" y1="405" x2="3107" y2="565" stroke="#999" stroke-width="1.6"/>
<line x1="3016" y1="405" x2="3107" y2="565" stroke="#999" stroke-width="1.6"/>
<line x1="3198" y1="405" x2="3107" y2="565" stroke="#999" stroke-width="1.6"/>
<line x1="3380" y1="405" x2="3107" y2="565" stroke="#999" stroke-width="1.6"/>
<line x1="3016" y1="339" x2="3107" y2="565" stroke="#999" stroke-width="1.6"/>
<line x1="3198" y1="339" x2="3107" y2="565" stroke="#999" stroke-width="1.6"/>
<line x1="5334" y1="471" x2="5607" y2="565" stroke="#999" stroke-width="1.6"/>
<line x1="5516" y1="471" x2="5607" y2="565" stroke="#999" stroke-width="1.6"/>
<line x1="5698" y1="471" x2="5607" y2="565" stroke="#999" stroke-width="1.6"/>
<line x1="5880" y1="471" x2="5607" y2="565" stroke="#999" stroke-width="1.6"/>
<line x1="5334" y1="405" x2="5607" y2="565" stroke="#999" stroke-width="1.6"/>
<line x1="5516" y1="405" x2="5607" y2="565" stroke="#999" stroke-width="1.6"/>
<line x1="5698" y1="405" x2="5607" y2="565" stroke="#999" stroke-width="1.6"/>
<line x1="5880" y1="405" x2="5607" y2="565" stroke="#999" stroke-width="1.6"/>
<line x1="5334" y1="339" x2="5607" y2="565" stroke="#999" stroke-width="1.6"/>
<line x1="5516" y1="339" x2="5607" y2="565" stroke="#999" stroke-width="1.6"/>
<line x1="5698" y1="339" x2="5607" y2="565" stroke="#999" stroke-width="1.6"/>
<line x1="5880" y1="339" x2="5607" y2="565" stroke="#999" stroke-width="1.6"/>
<line x1="5607" y1="273" x2="5607" y2="565" stroke="#999" stroke-width="1.6"/>
<line x1="1584" y1="1759" x2="1857" y2="1665" stroke="#999" stroke-width="1.6"/>
<line x1="1766" y1="1759" x2="1857" y2="1665" stroke="#999" stroke-width="1.6"/>
<line x1="1948" y1="1759" x2="1857" y2="1665" stroke="#999" stroke-width="1.6"/>
<line x1="2130" y1="1759" x2="1857" y2="1665" stroke="#999" stroke-width="1.6"/>
<line x1="1766" y1="1825" x2="1857" y2="1665" stroke="#999" stroke-width="1.6"/>
<line x1="1948" y1="1825" x2="1857" y2="1665" stroke="#999" stroke-width="1.6"/>
<line x1="2925" y1="1759" x2="3107" y2="1665" stroke="#999" stroke-width="1.6"/>
<line x1="3107" y1="1759" x2="3107" y2="1665" stroke="#999" stroke-width="1.6"/>
<line x1="3289" y1="1759" x2="3107" y2="1665" stroke="#999" stroke-width="1.6"/>
<line x1="4084" y1="1571" x2="4357" y2="1665" stroke="#999" stroke-width="1.6"/>
<line x1="4266" y1="1571" x2="4357" y2="1665" stroke="#999" stroke-width="1.6"/>
<line x1="4448" y1="1571" x2="4357" y2="1665" stroke="#999" stroke-width="1.6"/>
<line x1="4630" y1="1571" x2="4357" y2="1665" stroke="#999" stroke-width="1.6"/>
<line x1="4084" y1="1505" x2="4357" y2="1665" stroke="#999" stroke-width="1.6"/>
<line x1="4266" y1="1505" x2="4357" y2="1665" stroke="#999" stroke-width="1.6"/>
<line x1="4448" y1="1505" x2="4357" y2="1665" stroke="#999" stroke-width="1.6"/>
<line x1="4630" y1="1505" x2="4357" y2="1665" stroke="#999" stroke-width="1.6"/>
<line x1="1675" y1="2859" x2="1857" y2="2765" stroke="#999" stroke-width="1.6"/>
<line x1="1857" y1="2859" x2="1857" y2="2765" stroke="#999" stroke-width="1.6"/>
<line x1="2039" y1="2859" x2="1857" y2="2765" stroke="#999" stroke-width="1.6"/>
<line x1="2550" y1="3959" x2="2732" y2="3865" stroke="#999" stroke-width="1.6"/>
<line x1="2732" y1="3959" x2="2732" y2="3865" stroke="#999" stroke-width="1.6"/>
<line x1="2914" y1="3959" x2="2732" y2="3865" stroke="#999" stroke-width="1.6"/>
<line x1="2834" y1="2859" x2="3107" y2="2765" stroke="#999" stroke-width="1.6"/>
<line x1="3016" y1="2859" x2="3107" y2="2765" stroke="#999" stroke-width="1.6"/>
<line x1="3198" y1="2859" x2="3107" y2="2765" stroke="#999" stroke-width="1.6"/>
<line x1="3380" y1="2859" x2="3107" y2="2765" stroke="#999" stroke-width="1.6"/>
<line x1="3107" y1="2925" x2="3107" y2="2765" stroke="#999" stroke-width="1.6"/>
<line x1="4084" y1="2859" x2="4357" y2="2765" stroke="#999" stroke-width="1.6"/>
<line x1="4266" y1="2859" x2="4357" y2="2765" stroke="#999" stroke-width="1.6"/>
<line x1="4448" y1="2859" x2="4357" y2="2765" stroke="#999" stroke-width="1.6"/>
<line x1="4630" y1="2859" x2="4357" y2="2765" stroke="#999" stroke-width="1.6"/>
<line x1="368" y1="1599" x2="607" y2="1665" stroke="#999" stroke-width="1.6"/>
<line x1="368" y1="1665" x2="607" y2="1665" stroke="#999" stroke-width="1.6"/>
<line x1="368" y1="1731" x2="607" y2="1665" stroke="#999" stroke-width="1.6"/>
<line x1="368" y1="2666" x2="607" y2="2765" stroke="#999" stroke-width="1.6"/>
<line x1="368" y1="2732" x2="607" y2="2765" stroke="#999" stroke-width="1.6"/>
<line x1="368" y1="2798" x2="607" y2="2765" stroke="#999" stroke-width="1.6"/>
<line x1="368" y1="2864" x2="607" y2="2765" stroke="#999" stroke-width="1.6"/>
<line x1="174" y1="2699" x2="607" y2="2765" stroke="#999" stroke-width="1.6"/>
<line x1="174" y1="2765" x2="607" y2="2765" stroke="#999" stroke-width="1.6"/>
<line x1="174" y1="2831" x2="607" y2="2765" stroke="#999" stroke-width="1.6"/>
<line x1="425" y1="3959" x2="607" y2="3865" stroke="#999" stroke-width="1.6"/>
<line x1="607" y1="3959" x2="607" y2="3865" stroke="#999" stroke-width="1.6"/>
<line x1="789" y1="3959" x2="607" y2="3865" stroke="#999" stroke-width="1.6"/>
<line x1="1857" y1="565" x2="1232" y2="565" stroke="#333" stroke-width="2.4"/>
<rect x="1452" y="549" width="34" height="26" fill="#fff" stroke="none" rx="4"/>
<text x="1470" y="568" font-size="20" font-weight="700" fill="#111" text-anchor="middle" dominant-baseline="middle">N</text>
<line x1="607" y1="565" x2="1232" y2="565" stroke="#333" stroke-width="2.4"/>
<rect x="978" y="549" width="34" height="26" fill="#fff" stroke="none" rx="4"/>
<text x="994" y="568" font-size="20" font-weight="700" fill="#111" text-anchor="middle" dominant-baseline="middle">1</text>
<line x1="1857" y1="1665" x2="1232" y2="1115" stroke="#333" stroke-width="2.4" stroke-dasharray="9,6"/>
<rect x="1452" y="1308" width="34" height="26" fill="#fff" stroke="none" rx="4"/>
<text x="1470" y="1327" font-size="20" font-weight="700" fill="#111" text-anchor="middle" dominant-baseline="middle">N</text>
<line x1="607" y1="565" x2="1232" y2="1115" stroke="#333" stroke-width="2.4" stroke-dasharray="9,6"/>
<rect x="978" y="890" width="34" height="26" fill="#fff" stroke="none" rx="4"/>
<text x="994" y="909" font-size="20" font-weight="700" fill="#111" text-anchor="middle" dominant-baseline="middle">1</text>
<line x1="1857" y1="565" x2="1857" y2="1115" stroke="#333" stroke-width="2.4"/>
<rect x="1840" y="890" width="34" height="26" fill="#fff" stroke="none" rx="4"/>
<text x="1857" y="909" font-size="20" font-weight="700" fill="#111" text-anchor="middle" dominant-baseline="middle">1</text>
<line x1="1857" y1="1665" x2="1857" y2="1115" stroke="#333" stroke-width="2.4"/>
<rect x="1840" y="1308" width="34" height="26" fill="#fff" stroke="none" rx="4"/>
<text x="1857" y="1327" font-size="20" font-weight="700" fill="#111" text-anchor="middle" dominant-baseline="middle">N</text>
<line x1="1857" y1="565" x2="3219" y2="1537" stroke="#333" stroke-width="2.4" stroke-dasharray="9,6"/>
<rect x="2685" y="1152" width="34" height="26" fill="#fff" stroke="none" rx="4"/>
<text x="2702" y="1171" font-size="20" font-weight="700" fill="#111" text-anchor="middle" dominant-baseline="middle">1</text>
<line x1="4357" y1="2765" x2="3219" y2="1537" stroke="#333" stroke-width="2.4" stroke-dasharray="9,6"/>
<rect x="3635" y="1988" width="34" height="26" fill="#fff" stroke="none" rx="4"/>
<text x="3652" y="2007" font-size="20" font-weight="700" fill="#111" text-anchor="middle" dominant-baseline="middle">N</text>
<line x1="1857" y1="1665" x2="2482" y2="1665" stroke="#333" stroke-width="2.4"/>
<rect x="2228" y="1649" width="34" height="26" fill="#fff" stroke="none" rx="4"/>
<text x="2244" y="1668" font-size="20" font-weight="700" fill="#111" text-anchor="middle" dominant-baseline="middle">1</text>
<line x1="3107" y1="1665" x2="2482" y2="1665" stroke="#333" stroke-width="2.4"/>
<rect x="2702" y="1649" width="34" height="26" fill="#fff" stroke="none" rx="4"/>
<text x="2720" y="1668" font-size="20" font-weight="700" fill="#111" text-anchor="middle" dominant-baseline="middle">N</text>
<line x1="1857" y1="1665" x2="1857" y2="2215" stroke="#333" stroke-width="2.4"/>
<rect x="1840" y="1990" width="34" height="26" fill="#fff" stroke="none" rx="4"/>
<text x="1857" y="2009" font-size="20" font-weight="700" fill="#111" text-anchor="middle" dominant-baseline="middle">1</text>
<line x1="1857" y1="2765" x2="1857" y2="2215" stroke="#333" stroke-width="2.4"/>
<rect x="1840" y="2408" width="34" height="26" fill="#fff" stroke="none" rx="4"/>
<text x="1857" y="2427" font-size="20" font-weight="700" fill="#111" text-anchor="middle" dominant-baseline="middle">1</text>
<line x1="1857" y1="1665" x2="2294" y2="2765" stroke="#333" stroke-width="2.4"/>
<rect x="2111" y="2331" width="34" height="26" fill="#fff" stroke="none" rx="4"/>
<text x="2128" y="2350" font-size="20" font-weight="700" fill="#111" text-anchor="middle" dominant-baseline="middle">1</text>
<line x1="2732" y1="3865" x2="2294" y2="2765" stroke="#333" stroke-width="2.4"/>
<rect x="2444" y="3167" width="34" height="26" fill="#fff" stroke="none" rx="4"/>
<text x="2461" y="3186" font-size="20" font-weight="700" fill="#111" text-anchor="middle" dominant-baseline="middle">0..1</text>
<line x1="1857" y1="1665" x2="2482" y2="2215" stroke="#333" stroke-width="2.4"/>
<rect x="2228" y="1990" width="34" height="26" fill="#fff" stroke="none" rx="4"/>
<text x="2244" y="2009" font-size="20" font-weight="700" fill="#111" text-anchor="middle" dominant-baseline="middle">1</text>
<line x1="3107" y1="2765" x2="2482" y2="2215" stroke="#333" stroke-width="2.4"/>
<rect x="2702" y="2408" width="34" height="26" fill="#fff" stroke="none" rx="4"/>
<text x="2720" y="2427" font-size="20" font-weight="700" fill="#111" text-anchor="middle" dominant-baseline="middle">N</text>
<line x1="1857" y1="1665" x2="3107" y2="2215" stroke="#333" stroke-width="2.4"/>
<rect x="2615" y="1990" width="34" height="26" fill="#fff" stroke="none" rx="4"/>
<text x="2632" y="2009" font-size="20" font-weight="700" fill="#111" text-anchor="middle" dominant-baseline="middle">1</text>
<line x1="4357" y1="2765" x2="3107" y2="2215" stroke="#333" stroke-width="2.4"/>
<rect x="3565" y="2408" width="34" height="26" fill="#fff" stroke="none" rx="4"/>
<text x="3582" y="2427" font-size="20" font-weight="700" fill="#111" text-anchor="middle" dominant-baseline="middle">N</text>
<line x1="4357" y1="1665" x2="3732" y2="1665" stroke="#333" stroke-width="2.4"/>
<rect x="3952" y="1649" width="34" height="26" fill="#fff" stroke="none" rx="4"/>
<text x="3970" y="1668" font-size="20" font-weight="700" fill="#111" text-anchor="middle" dominant-baseline="middle">1</text>
<line x1="3107" y1="1665" x2="3732" y2="1665" stroke="#333" stroke-width="2.4"/>
<rect x="3478" y="1649" width="34" height="26" fill="#fff" stroke="none" rx="4"/>
<text x="3494" y="1668" font-size="20" font-weight="700" fill="#111" text-anchor="middle" dominant-baseline="middle">N</text>
<line x1="4357" y1="1665" x2="3732" y2="2215" stroke="#333" stroke-width="2.4"/>
<rect x="3952" y="1990" width="34" height="26" fill="#fff" stroke="none" rx="4"/>
<text x="3970" y="2009" font-size="20" font-weight="700" fill="#111" text-anchor="middle" dominant-baseline="middle">1</text>
<line x1="3107" y1="2765" x2="3732" y2="2215" stroke="#333" stroke-width="2.4"/>
<rect x="3478" y="2408" width="34" height="26" fill="#fff" stroke="none" rx="4"/>
<text x="3494" y="2427" font-size="20" font-weight="700" fill="#111" text-anchor="middle" dominant-baseline="middle">N</text>
<line x1="4357" y1="1665" x2="4357" y2="2215" stroke="#333" stroke-width="2.4"/>
<rect x="4340" y="1990" width="34" height="26" fill="#fff" stroke="none" rx="4"/>
<text x="4357" y="2009" font-size="20" font-weight="700" fill="#111" text-anchor="middle" dominant-baseline="middle">1</text>
<line x1="4357" y1="2765" x2="4357" y2="2215" stroke="#333" stroke-width="2.4"/>
<rect x="4340" y="2408" width="34" height="26" fill="#fff" stroke="none" rx="4"/>
<text x="4357" y="2427" font-size="20" font-weight="700" fill="#111" text-anchor="middle" dominant-baseline="middle">N</text>
<line x1="4357" y1="1665" x2="4982" y2="1115" stroke="#333" stroke-width="2.4"/>
<rect x="4728" y="1308" width="34" height="26" fill="#fff" stroke="none" rx="4"/>
<text x="4744" y="1327" font-size="20" font-weight="700" fill="#111" text-anchor="middle" dominant-baseline="middle">1</text>
<line x1="5607" y1="565" x2="4982" y2="1115" stroke="#333" stroke-width="2.4"/>
<rect x="5202" y="890" width="34" height="26" fill="#fff" stroke="none" rx="4"/>
<text x="5220" y="909" font-size="20" font-weight="700" fill="#111" text-anchor="middle" dominant-baseline="middle">N</text>
<line x1="3107" y1="565" x2="3107" y2="1115" stroke="#333" stroke-width="2.4"/>
<rect x="3090" y="890" width="34" height="26" fill="#fff" stroke="none" rx="4"/>
<text x="3107" y="909" font-size="20" font-weight="700" fill="#111" text-anchor="middle" dominant-baseline="middle">1</text>
<line x1="3107" y1="1665" x2="3107" y2="1115" stroke="#333" stroke-width="2.4"/>
<rect x="3090" y="1308" width="34" height="26" fill="#fff" stroke="none" rx="4"/>
<text x="3107" y="1327" font-size="20" font-weight="700" fill="#111" text-anchor="middle" dominant-baseline="middle">N</text>
<line x1="3107" y1="565" x2="2869" y2="1115" stroke="#333" stroke-width="2.4" stroke-dasharray="9,6"/>
<rect x="2942" y="890" width="34" height="26" fill="#fff" stroke="none" rx="4"/>
<text x="2959" y="909" font-size="20" font-weight="700" fill="#111" text-anchor="middle" dominant-baseline="middle">1</text>
<line x1="3107" y1="1665" x2="2869" y2="1115" stroke="#333" stroke-width="2.4" stroke-dasharray="9,6"/>
<rect x="2942" y="1308" width="34" height="26" fill="#fff" stroke="none" rx="4"/>
<text x="2959" y="1327" font-size="20" font-weight="700" fill="#111" text-anchor="middle" dominant-baseline="middle">N</text>
<line x1="607" y1="1665" x2="1232" y2="1665" stroke="#333" stroke-width="2.4" stroke-dasharray="9,6"/>
<rect x="978" y="1649" width="34" height="26" fill="#fff" stroke="none" rx="4"/>
<text x="994" y="1668" font-size="20" font-weight="700" fill="#111" text-anchor="middle" dominant-baseline="middle">1</text>
<line x1="1857" y1="1665" x2="1232" y2="1665" stroke="#333" stroke-width="2.4" stroke-dasharray="9,6"/>
<rect x="1452" y="1649" width="34" height="26" fill="#fff" stroke="none" rx="4"/>
<text x="1470" y="1668" font-size="20" font-weight="700" fill="#111" text-anchor="middle" dominant-baseline="middle">N</text>
<line x1="607" y1="1665" x2="607" y2="2215" stroke="#333" stroke-width="2.4" stroke-dasharray="9,6"/>
<rect x="590" y="1990" width="34" height="26" fill="#fff" stroke="none" rx="4"/>
<text x="607" y="2009" font-size="20" font-weight="700" fill="#111" text-anchor="middle" dominant-baseline="middle">1</text>
<line x1="607" y1="2765" x2="607" y2="2215" stroke="#333" stroke-width="2.4" stroke-dasharray="9,6"/>
<rect x="590" y="2408" width="34" height="26" fill="#fff" stroke="none" rx="4"/>
<text x="607" y="2427" font-size="20" font-weight="700" fill="#111" text-anchor="middle" dominant-baseline="middle">0..1</text>
<polygon points="1232,513 1332,565 1232,617 1132,565" fill="#ffe6cc" stroke="#d79b00" stroke-width="2.4"/>
<text x="1232" y="570" font-size="17" fill="#663c00" text-anchor="middle">cư trú tại</text>
<polygon points="1232,1063 1332,1115 1232,1167 1132,1115" fill="#ffe6cc" stroke="#d79b00" stroke-width="2.4"/>
<text x="1232" y="1120" font-size="17" fill="#663c00" text-anchor="middle">giao đến</text>
<polygon points="1857,1063 1957,1115 1857,1167 1757,1115" fill="#ffe6cc" stroke="#d79b00" stroke-width="2.4"/>
<text x="1857" y="1120" font-size="17" fill="#663c00" text-anchor="middle">đặt</text>
<polygon points="3219,1485 3319,1537 3219,1589 3119,1537" fill="#ffe6cc" stroke="#d79b00" stroke-width="2.4"/>
<text x="3219" y="1542" font-size="17" fill="#663c00" text-anchor="middle">viết</text>
<polygon points="2482,1613 2582,1665 2482,1717 2382,1665" fill="#ffe6cc" stroke="#d79b00" stroke-width="2.4"/>
<polygon points="2482,1624 2566,1665 2482,1706 2398,1665" fill="none" stroke="#d79b00" stroke-width="1.8"/>
<text x="2482" y="1670" font-size="17" fill="#663c00" text-anchor="middle">gồm</text>
<polygon points="1857,2163 1957,2215 1857,2267 1757,2215" fill="#ffe6cc" stroke="#d79b00" stroke-width="2.4"/>
<polygon points="1857,2174 1941,2215 1857,2256 1773,2215" fill="none" stroke="#d79b00" stroke-width="1.8"/>
<text x="1857" y="2220" font-size="17" fill="#663c00" text-anchor="middle">thanh toán bằng</text>
<polygon points="2294,2713 2394,2765 2294,2817 2194,2765" fill="#ffe6cc" stroke="#d79b00" stroke-width="2.4"/>
<polygon points="2294,2724 2378,2765 2294,2806 2210,2765" fill="none" stroke="#d79b00" stroke-width="1.8"/>
<text x="2294" y="2770" font-size="17" fill="#663c00" text-anchor="middle">được giao bởi</text>
<polygon points="2482,2163 2582,2215 2482,2267 2382,2215" fill="#ffe6cc" stroke="#d79b00" stroke-width="2.4"/>
<text x="2482" y="2220" font-size="17" fill="#663c00" text-anchor="middle">phát sinh</text>
<polygon points="3107,2163 3207,2215 3107,2267 3007,2215" fill="#ffe6cc" stroke="#d79b00" stroke-width="2.4"/>
<text x="3107" y="2220" font-size="17" fill="#663c00" text-anchor="middle">nhận</text>
<polygon points="3732,1613 3832,1665 3732,1717 3632,1665" fill="#ffe6cc" stroke="#d79b00" stroke-width="2.4"/>
<polygon points="3732,1624 3816,1665 3732,1706 3648,1665" fill="none" stroke="#d79b00" stroke-width="1.8"/>
<text x="3732" y="1670" font-size="17" fill="#663c00" text-anchor="middle">được bán trong</text>
<polygon points="3732,2163 3832,2215 3732,2267 3632,2215" fill="#ffe6cc" stroke="#d79b00" stroke-width="2.4"/>
<text x="3732" y="2220" font-size="17" fill="#663c00" text-anchor="middle">bị trả lại</text>
<polygon points="4357,2163 4457,2215 4357,2267 4257,2215" fill="#ffe6cc" stroke="#d79b00" stroke-width="2.4"/>
<text x="4357" y="2220" font-size="17" fill="#663c00" text-anchor="middle">được đánh giá</text>
<polygon points="4982,1063 5082,1115 4982,1167 4882,1115" fill="#ffe6cc" stroke="#d79b00" stroke-width="2.4"/>
<polygon points="4982,1074 5066,1115 4982,1156 4898,1115" fill="none" stroke="#d79b00" stroke-width="1.8"/>
<text x="4982" y="1120" font-size="17" fill="#663c00" text-anchor="middle">được kiểm kê</text>
<polygon points="3107,1063 3207,1115 3107,1167 3007,1115" fill="#ffe6cc" stroke="#d79b00" stroke-width="2.4"/>
<text x="3107" y="1120" font-size="17" fill="#663c00" text-anchor="middle">áp dụng cho</text>
<polygon points="2869,1063 2969,1115 2869,1167 2769,1115" fill="#ffe6cc" stroke="#d79b00" stroke-width="2.4"/>
<text x="2869" y="1120" font-size="17" fill="#663c00" text-anchor="middle">cộng dồn cho</text>
<polygon points="1232,1613 1332,1665 1232,1717 1132,1665" fill="#ffe6cc" stroke="#d79b00" stroke-width="2.4"/>
<text x="1232" y="1670" font-size="17" fill="#663c00" text-anchor="middle">được tổng hợp theo ngày từ</text>
<polygon points="607,2163 707,2215 607,2267 507,2215" fill="#ffe6cc" stroke="#d79b00" stroke-width="2.4"/>
<text x="607" y="2220" font-size="17" fill="#663c00" text-anchor="middle">có lưu lượng truy cập</text>
<ellipse cx="334" cy="471" rx="84" ry="23" fill="#d5e8d4" stroke="#82b366" stroke-width="2"/>
<text x="334" y="476" font-size="15" fill="#111" text-anchor="middle" text-decoration="underline">zip</text>
<ellipse cx="516" cy="471" rx="84" ry="23" fill="#f5f5f5" stroke="#777777" stroke-width="2"/>
<text x="516" y="476" font-size="15" fill="#111" text-anchor="middle">city</text>
<ellipse cx="698" cy="471" rx="84" ry="23" fill="#f5f5f5" stroke="#777777" stroke-width="2"/>
<text x="698" y="476" font-size="15" fill="#111" text-anchor="middle">region</text>
<ellipse cx="880" cy="471" rx="84" ry="23" fill="#f5f5f5" stroke="#777777" stroke-width="2"/>
<text x="880" y="476" font-size="15" fill="#111" text-anchor="middle">district</text>
<ellipse cx="1584" cy="471" rx="84" ry="23" fill="#d5e8d4" stroke="#82b366" stroke-width="2"/>
<text x="1584" y="476" font-size="15" fill="#111" text-anchor="middle" text-decoration="underline">customer_id</text>
<ellipse cx="1766" cy="471" rx="84" ry="23" fill="#f5f5f5" stroke="#777777" stroke-width="2"/>
<text x="1766" y="476" font-size="15" fill="#111" text-anchor="middle">signup_date</text>
<ellipse cx="1948" cy="471" rx="84" ry="23" fill="#f5f5f5" stroke="#777777" stroke-width="2"/>
<text x="1948" y="476" font-size="15" fill="#111" text-anchor="middle">gender</text>
<ellipse cx="2130" cy="471" rx="84" ry="23" fill="#f5f5f5" stroke="#777777" stroke-width="2"/>
<text x="2130" y="476" font-size="15" fill="#111" text-anchor="middle">age_group</text>
<ellipse cx="1766" cy="405" rx="84" ry="23" fill="#f5f5f5" stroke="#777777" stroke-width="2"/>
<text x="1766" y="410" font-size="13" fill="#111" text-anchor="middle">acquisition_channel</text>
<ellipse cx="1948" cy="405" rx="84" ry="23" fill="#f5f5f5" stroke="#777777" stroke-width="2" stroke-dasharray="7,5"/>
<text x="1948" y="410" font-size="15" fill="#666" text-anchor="middle">city</text>
<ellipse cx="2834" cy="471" rx="84" ry="23" fill="#d5e8d4" stroke="#82b366" stroke-width="2"/>
<text x="2834" y="476" font-size="15" fill="#111" text-anchor="middle" text-decoration="underline">promo_id</text>
<ellipse cx="3016" cy="471" rx="84" ry="23" fill="#f5f5f5" stroke="#777777" stroke-width="2"/>
<text x="3016" y="476" font-size="15" fill="#111" text-anchor="middle">promo_name</text>
<ellipse cx="3198" cy="471" rx="84" ry="23" fill="#f5f5f5" stroke="#777777" stroke-width="2"/>
<text x="3198" y="476" font-size="15" fill="#111" text-anchor="middle">promo_type</text>
<ellipse cx="3380" cy="471" rx="84" ry="23" fill="#f5f5f5" stroke="#777777" stroke-width="2"/>
<text x="3380" y="476" font-size="15" fill="#111" text-anchor="middle">discount_value</text>
<ellipse cx="2834" cy="405" rx="84" ry="23" fill="#f5f5f5" stroke="#777777" stroke-width="2"/>
<text x="2834" y="410" font-size="15" fill="#111" text-anchor="middle">start_date</text>
<ellipse cx="3016" cy="405" rx="84" ry="23" fill="#f5f5f5" stroke="#777777" stroke-width="2"/>
<text x="3016" y="410" font-size="15" fill="#111" text-anchor="middle">end_date</text>
<ellipse cx="3198" cy="405" rx="84" ry="23" fill="#f5f5f5" stroke="#777777" stroke-width="2"/>
<text x="3198" y="410" font-size="13" fill="#111" text-anchor="middle">applicable_category</text>
<ellipse cx="3380" cy="405" rx="84" ry="23" fill="#f5f5f5" stroke="#777777" stroke-width="2"/>
<text x="3380" y="410" font-size="15" fill="#111" text-anchor="middle">promo_channel</text>
<ellipse cx="3016" cy="339" rx="84" ry="23" fill="#f5f5f5" stroke="#777777" stroke-width="2"/>
<text x="3016" y="344" font-size="15" fill="#111" text-anchor="middle">stackable_flag</text>
<ellipse cx="3198" cy="339" rx="84" ry="23" fill="#f5f5f5" stroke="#777777" stroke-width="2"/>
<text x="3198" y="344" font-size="15" fill="#111" text-anchor="middle">min_order_value</text>
<ellipse cx="5334" cy="471" rx="84" ry="23" fill="#d5e8d4" stroke="#82b366" stroke-width="2" stroke-dasharray="7,5"/>
<text x="5334" y="476" font-size="15" fill="#111" text-anchor="middle" text-decoration="underline">snapshot_date</text>
<ellipse cx="5516" cy="471" rx="84" ry="23" fill="#f5f5f5" stroke="#777777" stroke-width="2"/>
<text x="5516" y="476" font-size="15" fill="#111" text-anchor="middle">stock_on_hand</text>
<ellipse cx="5698" cy="471" rx="84" ry="23" fill="#f5f5f5" stroke="#777777" stroke-width="2"/>
<text x="5698" y="476" font-size="15" fill="#111" text-anchor="middle">units_received</text>
<ellipse cx="5880" cy="471" rx="84" ry="23" fill="#f5f5f5" stroke="#777777" stroke-width="2"/>
<text x="5880" y="476" font-size="15" fill="#111" text-anchor="middle">units_sold</text>
<ellipse cx="5334" cy="405" rx="84" ry="23" fill="#f5f5f5" stroke="#777777" stroke-width="2"/>
<text x="5334" y="410" font-size="15" fill="#111" text-anchor="middle">stockout_days</text>
<ellipse cx="5516" cy="405" rx="84" ry="23" fill="#f5f5f5" stroke="#777777" stroke-width="2"/>
<text x="5516" y="410" font-size="15" fill="#111" text-anchor="middle">days_of_supply</text>
<ellipse cx="5698" cy="405" rx="84" ry="23" fill="#f5f5f5" stroke="#777777" stroke-width="2"/>
<text x="5698" y="410" font-size="15" fill="#111" text-anchor="middle">stockout_flag</text>
<ellipse cx="5880" cy="405" rx="84" ry="23" fill="#f5f5f5" stroke="#777777" stroke-width="2"/>
<text x="5880" y="410" font-size="15" fill="#111" text-anchor="middle">overstock_flag</text>
<ellipse cx="5334" cy="339" rx="84" ry="23" fill="#f5f5f5" stroke="#777777" stroke-width="2"/>
<text x="5334" y="344" font-size="15" fill="#111" text-anchor="middle">reorder_flag</text>
<ellipse cx="5516" cy="339" rx="84" ry="23" fill="#f5f5f5" stroke="#777777" stroke-width="2"/>
<text x="5516" y="344" font-size="15" fill="#111" text-anchor="middle">sell_through_rate</text>
<ellipse cx="5698" cy="339" rx="84" ry="23" fill="#f5f5f5" stroke="#777777" stroke-width="2" stroke-dasharray="7,5"/>
<text x="5698" y="344" font-size="15" fill="#666" text-anchor="middle">fill_rate</text>
<ellipse cx="5880" cy="339" rx="84" ry="23" fill="#f5f5f5" stroke="#777777" stroke-width="2" stroke-dasharray="7,5"/>
<text x="5880" y="344" font-size="15" fill="#666" text-anchor="middle">year</text>
<ellipse cx="5607" cy="273" rx="84" ry="23" fill="#f5f5f5" stroke="#777777" stroke-width="2" stroke-dasharray="7,5"/>
<text x="5607" y="278" font-size="15" fill="#666" text-anchor="middle">month</text>
<ellipse cx="1584" cy="1759" rx="84" ry="23" fill="#d5e8d4" stroke="#82b366" stroke-width="2"/>
<text x="1584" y="1764" font-size="15" fill="#111" text-anchor="middle" text-decoration="underline">order_id</text>
<ellipse cx="1766" cy="1759" rx="84" ry="23" fill="#f5f5f5" stroke="#777777" stroke-width="2"/>
<text x="1766" y="1764" font-size="15" fill="#111" text-anchor="middle">order_date</text>
<ellipse cx="1948" cy="1759" rx="84" ry="23" fill="#f5f5f5" stroke="#777777" stroke-width="2"/>
<text x="1948" y="1764" font-size="15" fill="#111" text-anchor="middle">order_status</text>
<ellipse cx="2130" cy="1759" rx="84" ry="23" fill="#f5f5f5" stroke="#777777" stroke-width="2"/>
<text x="2130" y="1764" font-size="15" fill="#111" text-anchor="middle">payment_method</text>
<ellipse cx="1766" cy="1825" rx="84" ry="23" fill="#f5f5f5" stroke="#777777" stroke-width="2"/>
<text x="1766" y="1830" font-size="15" fill="#111" text-anchor="middle">device_type</text>
<ellipse cx="1948" cy="1825" rx="84" ry="23" fill="#f5f5f5" stroke="#777777" stroke-width="2"/>
<text x="1948" y="1830" font-size="15" fill="#111" text-anchor="middle">order_source</text>
<ellipse cx="2925" cy="1759" rx="84" ry="23" fill="#f5f5f5" stroke="#777777" stroke-width="2"/>
<text x="2925" y="1764" font-size="15" fill="#111" text-anchor="middle">quantity</text>
<ellipse cx="3107" cy="1759" rx="84" ry="23" fill="#f5f5f5" stroke="#777777" stroke-width="2"/>
<text x="3107" y="1764" font-size="15" fill="#111" text-anchor="middle">unit_price</text>
<ellipse cx="3289" cy="1759" rx="84" ry="23" fill="#f5f5f5" stroke="#777777" stroke-width="2"/>
<text x="3289" y="1764" font-size="15" fill="#111" text-anchor="middle">discount_amount</text>
<ellipse cx="4084" cy="1571" rx="84" ry="23" fill="#d5e8d4" stroke="#82b366" stroke-width="2"/>
<text x="4084" y="1576" font-size="15" fill="#111" text-anchor="middle" text-decoration="underline">product_id</text>
<ellipse cx="4266" cy="1571" rx="84" ry="23" fill="#f5f5f5" stroke="#777777" stroke-width="2"/>
<text x="4266" y="1576" font-size="15" fill="#111" text-anchor="middle">product_name</text>
<ellipse cx="4448" cy="1571" rx="84" ry="23" fill="#f5f5f5" stroke="#777777" stroke-width="2"/>
<text x="4448" y="1576" font-size="15" fill="#111" text-anchor="middle">category</text>
<ellipse cx="4630" cy="1571" rx="84" ry="23" fill="#f5f5f5" stroke="#777777" stroke-width="2"/>
<text x="4630" y="1576" font-size="15" fill="#111" text-anchor="middle">segment</text>
<ellipse cx="4084" cy="1505" rx="84" ry="23" fill="#f5f5f5" stroke="#777777" stroke-width="2"/>
<text x="4084" y="1510" font-size="15" fill="#111" text-anchor="middle">size</text>
<ellipse cx="4266" cy="1505" rx="84" ry="23" fill="#f5f5f5" stroke="#777777" stroke-width="2"/>
<text x="4266" y="1510" font-size="15" fill="#111" text-anchor="middle">color</text>
<ellipse cx="4448" cy="1505" rx="84" ry="23" fill="#f5f5f5" stroke="#777777" stroke-width="2"/>
<text x="4448" y="1510" font-size="15" fill="#111" text-anchor="middle">price</text>
<ellipse cx="4630" cy="1505" rx="84" ry="23" fill="#f5f5f5" stroke="#777777" stroke-width="2"/>
<text x="4630" y="1510" font-size="15" fill="#111" text-anchor="middle">cogs</text>
<ellipse cx="1675" cy="2859" rx="84" ry="23" fill="#f5f5f5" stroke="#777777" stroke-width="2"/>
<text x="1675" y="2864" font-size="15" fill="#111" text-anchor="middle">payment_value</text>
<ellipse cx="1857" cy="2859" rx="84" ry="23" fill="#f5f5f5" stroke="#777777" stroke-width="2"/>
<text x="1857" y="2864" font-size="15" fill="#111" text-anchor="middle">installments</text>
<ellipse cx="2039" cy="2859" rx="84" ry="23" fill="#f5f5f5" stroke="#777777" stroke-width="2" stroke-dasharray="7,5"/>
<text x="2039" y="2864" font-size="15" fill="#666" text-anchor="middle">payment_method</text>
<ellipse cx="2550" cy="3959" rx="84" ry="23" fill="#f5f5f5" stroke="#777777" stroke-width="2"/>
<text x="2550" y="3964" font-size="15" fill="#111" text-anchor="middle">ship_date</text>
<ellipse cx="2732" cy="3959" rx="84" ry="23" fill="#f5f5f5" stroke="#777777" stroke-width="2"/>
<text x="2732" y="3964" font-size="15" fill="#111" text-anchor="middle">delivery_date</text>
<ellipse cx="2914" cy="3959" rx="84" ry="23" fill="#f5f5f5" stroke="#777777" stroke-width="2"/>
<text x="2914" y="3964" font-size="15" fill="#111" text-anchor="middle">shipping_fee</text>
<ellipse cx="2834" cy="2859" rx="84" ry="23" fill="#d5e8d4" stroke="#82b366" stroke-width="2"/>
<text x="2834" y="2864" font-size="15" fill="#111" text-anchor="middle" text-decoration="underline">return_id</text>
<ellipse cx="3016" cy="2859" rx="84" ry="23" fill="#f5f5f5" stroke="#777777" stroke-width="2"/>
<text x="3016" y="2864" font-size="15" fill="#111" text-anchor="middle">return_date</text>
<ellipse cx="3198" cy="2859" rx="84" ry="23" fill="#f5f5f5" stroke="#777777" stroke-width="2"/>
<text x="3198" y="2864" font-size="15" fill="#111" text-anchor="middle">return_reason</text>
<ellipse cx="3380" cy="2859" rx="84" ry="23" fill="#f5f5f5" stroke="#777777" stroke-width="2"/>
<text x="3380" y="2864" font-size="15" fill="#111" text-anchor="middle">return_quantity</text>
<ellipse cx="3107" cy="2925" rx="84" ry="23" fill="#f5f5f5" stroke="#777777" stroke-width="2"/>
<text x="3107" y="2930" font-size="15" fill="#111" text-anchor="middle">refund_amount</text>
<ellipse cx="4084" cy="2859" rx="84" ry="23" fill="#d5e8d4" stroke="#82b366" stroke-width="2"/>
<text x="4084" y="2864" font-size="15" fill="#111" text-anchor="middle" text-decoration="underline">review_id</text>
<ellipse cx="4266" cy="2859" rx="84" ry="23" fill="#f5f5f5" stroke="#777777" stroke-width="2"/>
<text x="4266" y="2864" font-size="15" fill="#111" text-anchor="middle">review_date</text>
<ellipse cx="4448" cy="2859" rx="84" ry="23" fill="#f5f5f5" stroke="#777777" stroke-width="2"/>
<text x="4448" y="2864" font-size="15" fill="#111" text-anchor="middle">rating</text>
<ellipse cx="4630" cy="2859" rx="84" ry="23" fill="#f5f5f5" stroke="#777777" stroke-width="2"/>
<text x="4630" y="2864" font-size="15" fill="#111" text-anchor="middle">review_title</text>
<ellipse cx="368" cy="1599" rx="84" ry="23" fill="#d5e8d4" stroke="#82b366" stroke-width="2"/>
<text x="368" y="1604" font-size="15" fill="#111" text-anchor="middle" text-decoration="underline">Date</text>
<ellipse cx="368" cy="1665" rx="84" ry="23" fill="#f5f5f5" stroke="#777777" stroke-width="2"/>
<text x="368" y="1670" font-size="15" fill="#111" text-anchor="middle">Revenue</text>
<ellipse cx="368" cy="1731" rx="84" ry="23" fill="#f5f5f5" stroke="#777777" stroke-width="2"/>
<text x="368" y="1736" font-size="15" fill="#111" text-anchor="middle">COGS</text>
<ellipse cx="368" cy="2666" rx="84" ry="23" fill="#d5e8d4" stroke="#82b366" stroke-width="2"/>
<text x="368" y="2671" font-size="15" fill="#111" text-anchor="middle" text-decoration="underline">date</text>
<ellipse cx="368" cy="2732" rx="84" ry="23" fill="#f5f5f5" stroke="#777777" stroke-width="2"/>
<text x="368" y="2737" font-size="15" fill="#111" text-anchor="middle">sessions</text>
<ellipse cx="368" cy="2798" rx="84" ry="23" fill="#f5f5f5" stroke="#777777" stroke-width="2"/>
<text x="368" y="2803" font-size="15" fill="#111" text-anchor="middle">unique_visitors</text>
<ellipse cx="368" cy="2864" rx="84" ry="23" fill="#f5f5f5" stroke="#777777" stroke-width="2"/>
<text x="368" y="2869" font-size="15" fill="#111" text-anchor="middle">page_views</text>
<ellipse cx="174" cy="2699" rx="84" ry="23" fill="#f5f5f5" stroke="#777777" stroke-width="2"/>
<text x="174" y="2704" font-size="15" fill="#111" text-anchor="middle">bounce_rate</text>
<ellipse cx="174" cy="2765" rx="84" ry="23" fill="#f5f5f5" stroke="#777777" stroke-width="2"/>
<text x="174" y="2770" font-size="13" fill="#111" text-anchor="middle">avg_session_duration_sec</text>
<ellipse cx="174" cy="2831" rx="84" ry="23" fill="#f5f5f5" stroke="#777777" stroke-width="2"/>
<text x="174" y="2836" font-size="15" fill="#111" text-anchor="middle">traffic_source</text>
<ellipse cx="425" cy="3959" rx="84" ry="23" fill="#d5e8d4" stroke="#82b366" stroke-width="2"/>
<text x="425" y="3964" font-size="15" fill="#111" text-anchor="middle" text-decoration="underline">Date</text>
<ellipse cx="607" cy="3959" rx="84" ry="23" fill="#f5f5f5" stroke="#777777" stroke-width="2"/>
<text x="607" y="3964" font-size="15" fill="#111" text-anchor="middle">Revenue</text>
<ellipse cx="789" cy="3959" rx="84" ry="23" fill="#f5f5f5" stroke="#777777" stroke-width="2"/>
<text x="789" y="3964" font-size="15" fill="#111" text-anchor="middle">COGS</text>
<rect x="492" y="523" width="230" height="84" fill="#dae8fc" stroke="#6c8ebf" stroke-width="2.8"/>
<text x="607" y="571" font-size="19" font-weight="700" fill="#0b3a63" text-anchor="middle">GEOGRAPHY</text>
<rect x="1742" y="523" width="230" height="84" fill="#dae8fc" stroke="#6c8ebf" stroke-width="2.8"/>
<text x="1857" y="571" font-size="19" font-weight="700" fill="#0b3a63" text-anchor="middle">CUSTOMERS</text>
<rect x="2992" y="523" width="230" height="84" fill="#dae8fc" stroke="#6c8ebf" stroke-width="2.8"/>
<text x="3107" y="571" font-size="19" font-weight="700" fill="#0b3a63" text-anchor="middle">PROMOTIONS</text>
<rect x="5492" y="523" width="230" height="84" fill="#dae8fc" stroke="#6c8ebf" stroke-width="2.8"/>
<rect x="5500" y="531" width="214" height="68" fill="none" stroke="#6c8ebf" stroke-width="2"/>
<text x="5607" y="571" font-size="19" font-weight="700" fill="#0b3a63" text-anchor="middle">INVENTORY</text>
<rect x="1742" y="1623" width="230" height="84" fill="#dae8fc" stroke="#6c8ebf" stroke-width="2.8"/>
<text x="1857" y="1671" font-size="19" font-weight="700" fill="#0b3a63" text-anchor="middle">ORDERS</text>
<rect x="2992" y="1623" width="230" height="84" fill="#dae8fc" stroke="#6c8ebf" stroke-width="2.8"/>
<rect x="3000" y="1631" width="214" height="68" fill="none" stroke="#6c8ebf" stroke-width="2"/>
<text x="3107" y="1671" font-size="19" font-weight="700" fill="#0b3a63" text-anchor="middle">ORDER_ITEMS</text>
<rect x="4242" y="1623" width="230" height="84" fill="#dae8fc" stroke="#6c8ebf" stroke-width="2.8"/>
<text x="4357" y="1671" font-size="19" font-weight="700" fill="#0b3a63" text-anchor="middle">PRODUCTS</text>
<rect x="1742" y="2723" width="230" height="84" fill="#dae8fc" stroke="#6c8ebf" stroke-width="2.8"/>
<rect x="1750" y="2731" width="214" height="68" fill="none" stroke="#6c8ebf" stroke-width="2"/>
<text x="1857" y="2771" font-size="19" font-weight="700" fill="#0b3a63" text-anchor="middle">PAYMENTS</text>
<rect x="2617" y="3823" width="230" height="84" fill="#dae8fc" stroke="#6c8ebf" stroke-width="2.8"/>
<rect x="2625" y="3831" width="214" height="68" fill="none" stroke="#6c8ebf" stroke-width="2"/>
<text x="2732" y="3871" font-size="19" font-weight="700" fill="#0b3a63" text-anchor="middle">SHIPMENTS</text>
<rect x="2992" y="2723" width="230" height="84" fill="#dae8fc" stroke="#6c8ebf" stroke-width="2.8"/>
<text x="3107" y="2771" font-size="19" font-weight="700" fill="#0b3a63" text-anchor="middle">RETURNS</text>
<rect x="4242" y="2723" width="230" height="84" fill="#dae8fc" stroke="#6c8ebf" stroke-width="2.8"/>
<text x="4357" y="2771" font-size="19" font-weight="700" fill="#0b3a63" text-anchor="middle">REVIEWS</text>
<rect x="492" y="1623" width="230" height="84" fill="#ffe6cc" stroke="#d79b00" stroke-width="2.8" stroke-dasharray="10,6"/>
<text x="607" y="1671" font-size="19" font-weight="700" fill="#663c00" text-anchor="middle">SALES</text>
<rect x="492" y="2723" width="230" height="84" fill="#dae8fc" stroke="#6c8ebf" stroke-width="2.8"/>
<text x="607" y="2771" font-size="19" font-weight="700" fill="#0b3a63" text-anchor="middle">WEB_TRAFFIC</text>
<rect x="492" y="3823" width="230" height="84" fill="#dae8fc" stroke="#6c8ebf" stroke-width="2.8"/>
<text x="607" y="3871" font-size="15" font-weight="700" fill="#0b3a63" text-anchor="middle">SAMPLE_SUBMISSION</text>
<text x="3027" y="72" font-size="46" font-weight="700" fill="#0b3a63" text-anchor="middle">SƠ ĐỒ THỰC THỂ – LIÊN KẾT (ERD)</text>
<text x="3027" y="126" font-size="27" fill="#444" text-anchor="middle">Mức khái niệm – ký hiệu Chen · Bộ dữ liệu thương mại điện tử thời trang 2012–2022</text>
<rect x="70" y="4132" width="1180" height="516" fill="#fafafa" stroke="#888" stroke-width="2" rx="8"/>
<text x="94" y="4170" font-size="24" font-weight="700" fill="#111">CHÚ THÍCH KÝ HIỆU</text>
<rect x="94" y="4191" width="84" height="32" fill="#dae8fc" stroke="#6c8ebf" stroke-width="2.4"/>
<text x="210" y="4213" font-size="21" fill="#222">Thực thể (Entity)</text>
<rect x="94" y="4237" width="84" height="32" fill="#dae8fc" stroke="#6c8ebf" stroke-width="2.4"/>
<rect x="100" y="4243" width="72" height="20" fill="none" stroke="#6c8ebf" stroke-width="1.6"/>
<text x="210" y="4259" font-size="21" fill="#222">Thực thể yếu – không tự định danh được</text>
<rect x="94" y="4283" width="84" height="32" fill="#ffe6cc" stroke="#d79b00" stroke-width="2.4" stroke-dasharray="10,6"/>
<text x="210" y="4305" font-size="21" fill="#222">Thực thể suy diễn – toàn bộ giá trị tính lại được từ thực thể khác</text>
<polygon points="136,4326 184,4344 136,4362 88,4344" fill="#ffe6cc" stroke="#d79b00" stroke-width="2.4"/>
<text x="210" y="4351" font-size="21" fill="#222">Mối quan hệ (Relationship)</text>
<polygon points="136,4372 184,4390 136,4408 88,4390" fill="#ffe6cc" stroke="#d79b00" stroke-width="2.4"/>
<polygon points="136,4379 172,4390 136,4401 100,4390" fill="none" stroke="#d79b00" stroke-width="1.6"/>
<text x="210" y="4397" font-size="21" fill="#222">Quan hệ định danh – nối thực thể yếu với thực thể chủ</text>
<ellipse cx="136" cy="4436" rx="46" ry="17" fill="#f5f5f5" stroke="#777777" stroke-width="2"/>
<text x="210" y="4443" font-size="21" fill="#222">Thuộc tính (Attribute)</text>
<ellipse cx="136" cy="4482" rx="46" ry="17" fill="#d5e8d4" stroke="#82b366" stroke-width="2"/>
<line x1="114" y1="4489" x2="158" y2="4489" stroke="#111" stroke-width="1.6"/>
<text x="210" y="4489" font-size="21" fill="#222">Thuộc tính khóa – chữ gạch chân</text>
<ellipse cx="136" cy="4528" rx="46" ry="17" fill="#f5f5f5" stroke="#777777" stroke-width="2" stroke-dasharray="7,5"/>
<text x="210" y="4535" font-size="21" fill="#222">Thuộc tính suy diễn – tính lại được từ dữ liệu khác</text>
<ellipse cx="136" cy="4574" rx="46" ry="17" fill="#d5e8d4" stroke="#82b366" stroke-width="2" stroke-dasharray="7,5"/>
<line x1="114" y1="4581" x2="158" y2="4581" stroke="#111" stroke-width="1.6"/>
<text x="210" y="4581" font-size="21" fill="#222">Khóa bộ phận của thực thể yếu</text>
<line x1="88" y1="4620" x2="184" y2="4620" stroke="#333" stroke-width="2.4" stroke-dasharray="9,6"/>
<text x="210" y="4627" font-size="21" fill="#222">Nét đứt = liên kết suy diễn / qua cột dư thừa, không phải khóa ngoại vật lý</text>
<rect x="70" y="4682" width="2350" height="358" fill="#fff8e1" stroke="#d6b656" stroke-width="2" rx="8"/>
<text x="94" y="4720" font-size="21" fill="#5a4300" font-weight="700">Ghi chú về mô hình khái niệm:</text>
<text x="94" y="4756" font-size="21" fill="#5a4300" font-weight="400">• Khóa ngoại KHÔNG được vẽ thành thuộc tính — liên kết giữa các thực thể đã do hình thoi quan hệ biểu diễn.</text>
<text x="94" y="4792" font-size="21" fill="#5a4300" font-weight="400">• 18 cột khóa ngoại trong dữ liệu gốc đã được chuyển thành 17 mối quan hệ, nên số thuộc tính còn 78 thay vì 96.</text>
<text x="94" y="4828" font-size="21" fill="#5a4300" font-weight="400">• ORDER_ITEMS, PAYMENTS, SHIPMENTS, INVENTORY là thực thể yếu: phải mượn khóa của thực thể chủ để định danh.</text>
<text x="94" y="4864" font-size="21" fill="#5a4300" font-weight="400">• SALES là thực thể suy diễn: Revenue = Σ(quantity × unit_price) và COGS = Σ(quantity × products.cogs),</text>
<text x="94" y="4900" font-size="21" fill="#5a4300" font-weight="400">  gộp theo orders.order_date — đã kiểm chứng sai số 0,00 trên cả 3.833 ngày.</text>
<text x="94" y="4936" font-size="21" fill="#5a4300" font-weight="400">• Quan hệ SALES–ORDERS và SALES–WEB_TRAFFIC nối theo trục thời gian (nét đứt), không phải khóa ngoại vật lý.</text>
<text x="94" y="4972" font-size="21" fill="#5a4300" font-weight="400">  Kiểm chứng: tập sales.Date trùng khớp tuyệt đối với tập orders.order_date; web_traffic.date là tập con.</text>
<text x="94" y="5008" font-size="21" fill="#5a4300" font-weight="400">• SAMPLE_SUBMISSION thực sự tách biệt: chứa 548 ngày tương lai 2023–2024, giao với dữ liệu lịch sử bằng 0.</text>
</svg>